<?xml version="1.0" standalone="yes"?>
<svg width="850" height="150">
<path style="fill:#000000; stroke:none;" d="M0 0L0 150L850 150L850 0L0 0z"/>
<path style="fill:#ffffff; stroke:none;" d="M30 19L30 24C45.3458 24.0017 41.9846 33.8829 43.5756 46C46.1194 65.3732 45.8964 94.2449 40.0571 112.985C37.7172 120.494 29.1411 116.947 27 124L62.0008 123.999C67.0437 124.015 72.0073 124.949 73 119C59.1532 118.836 61 104.524 61 94C61 82.2512 58.3243 67.0571 65.7894 57.0394C79.8204 38.2104 105.224 44.486 110.32 67C111.894 73.9518 111.516 81.9464 110.83 89C109.737 100.25 105.853 110.821 99.2539 120C95.6758 124.977 88.6114 131.194 92.1798 137.956C98.1603 149.288 117.939 141.188 120 131C112.704 132.011 105.363 131.597 107.304 121.961C111.317 102.033 130.362 88.2281 131.91 67C133.28 48.2131 118.216 32.2148 99 33.5147C85.0093 34.4611 72.687 42.5247 62 51C62 43.7951 59.5416 30.6814 66.1443 25.7276C74.3647 19.5602 96.2187 22.1784 106 23.2847C114.57 24.254 123.276 20.6024 124 11L87 17.8302L30 19M325 15L324 20C334.784 23.063 332 38.216 332 47C332 65.4975 332.882 84.6339 330.715 103C330.201 107.35 326.538 120.067 329.643 123.397C334.918 129.055 351.895 119.905 357 117L357 115L356 114C343.645 115.363 345.496 99.1009 347 91C355.988 97.3315 362.747 106.728 369.87 115C373.091 118.741 376.887 124.741 382 125.958C388.556 127.517 401.245 121.032 407 118C404.742 132.563 432.504 121.729 435 114C416.924 113.786 422.637 79.9557 432.108 71.152C438.236 65.456 442.527 73.1357 449 73.4853C456.253 73.8771 464.123 66.3896 468 61C461.061 59.0982 453.545 52.4655 447 51.7307C438.336 50.758 430.307 62.3614 427 69L426 69C426 64.1644 426.96 57.227 423.436 53.3179C416.913 46.0819 398.46 58.6174 394 64C410.365 69.1875 409.025 81.6715 409 97C408.992 102.152 409.757 113.22 402.981 114.461C398.381 115.304 393.304 111.213 390 108.532C380.937 101.179 374.191 91.2593 366 83C377.596 77.8997 390.736 62.6938 393 50C385.616 50.0611 363.992 49.5322 361 57C363.906 57.7992 369.183 56.5082 371.382 58.6427C374.253 61.4304 371.397 67.2692 369.775 70C365.006 78.0334 356.325 84.1807 347 85L351 18C354.474 17.4235 355.423 16.4745 356 13L325 15M590 20C601.693 24.0116 599 41.8794 599 52C587.216 52 576.003 51.6797 565 56.669C544.623 65.9086 538.6 89.148 546 109C534.379 113.324 530.712 106.787 528.13 96C525.215 83.8167 530.409 54.2972 514 51.3295C502.441 49.2389 490.393 53.897 480 58.4244C476.541 59.9311 467.639 63.5714 472.477 68.5478C477.177 73.3824 484.325 62.3757 489 60.858C500.062 57.2664 504.692 69.8688 507 78C495.38 82.8377 469.403 91.4321 463.457 103.015C458.282 113.096 466.639 123.575 477 123.956C489.549 124.418 502.854 115.795 512 108C512.772 110.983 513.301 114.044 514.17 117C520.003 136.844 537.447 113.022 547.911 114.712C552.399 115.437 556.495 121.315 561 123.045C573.963 128.022 587.838 120.81 598 113L599.028 123.397L609 124.239L634 113C634.154 130.049 649.474 123.695 660 119.397C665.393 117.194 671.968 115.344 673 109C668.232 110.301 661.829 113.801 656.874 111.477C646.213 106.477 651.59 79.1626 652.715 70C653.193 66.1107 656.444 53.6753 651.682 51.6435C645.027 48.8038 632.004 58.5003 626 61L627 65C630.645 64.7284 633.703 65.2477 635.258 69.0448C639.723 79.9488 639.206 113.821 622.004 111.963C612.89 110.979 613.003 97.6904 613 91C612.993 73.0793 613.472 54.8341 615.17 37C615.918 29.1384 615.602 21.4057 623 17C620.195 10.0279 592.277 12.4982 590 20M643 23.7616C629.402 27.155 632.4 45.6663 645 42.2539C648.289 41.3631 654.583 37.7531 654.963 33.9599C655.452 29.0687 647.626 22.6072 643 23.7616M182 78C170.38 82.8377 144.403 91.4321 138.457 103.015C133.282 113.096 141.639 123.575 152 123.956C164.549 124.418 177.854 115.795 187 108C188.26 112.869 188.592 121.058 193.34 123.971C201.273 128.839 223.585 114.948 227 108L226 107C221.905 108.179 217.368 111.474 213.004 111.099C206.508 110.54 204.648 102.117 203.375 97C200.402 85.0482 205.304 55.2725 189.999 51.5332C178.38 48.6944 165.457 53.869 155 58.4244C151.541 59.9311 142.639 63.5714 147.477 68.5478C152.177 73.3824 159.326 62.3757 164 60.858C175.062 57.2664 179.692 69.8688 182 78M211 64C227.302 64.5291 231.712 96.3554 234.873 109C235.867 112.975 236.397 121.684 240.299 123.928C245.871 127.132 249.788 116.396 251.719 113C253.806 109.329 255.872 105.642 258.011 102C261.232 96.5149 265.073 91.0888 267 85L269 85C271.799 95.2352 276.659 105.149 280.6 115C281.819 118.046 283.098 124.094 287.093 124.534C293.519 125.242 299.843 108.596 302.6 104C309.719 92.1356 317.134 80.4331 323.244 68C324.897 64.6354 328.943 58.1134 326.879 54.3032C322.872 46.9084 302.08 53.2906 296 55L297 59C320.464 54.7266 298.914 94.4608 295 104C289.201 91.5997 285.327 77.9801 281 65C279.834 61.5017 278.707 53.287 274.722 51.9159C268.95 49.9297 259.717 56.247 255 59L255 61C270.824 75.192 256.836 86.7166 252 102L240.997 64L233.812 51.6466L220 56.2585L211 64M767 100C760.954 103.133 758.275 111.693 750.001 111.177C743.315 110.759 741.155 102.372 741.015 97C740.622 81.9674 743.998 67.0308 744 52C737.098 52.0046 722.689 52.2667 720 60C726.333 63.4089 725.99 72.5528 726 79C726.013 86.7873 727.347 99.6657 721.721 105.812C706.284 122.676 688.44 100.316 690.286 84C691.472 73.5218 692.913 62.5477 693 52C686.077 53.0224 667.444 56.9765 665 64C674.965 65.5962 676.098 74.3909 675.996 83C675.8 99.5908 668.31 126.189 695 124.895C699.493 124.677 703.875 123.076 708 121.395C713.974 118.961 719.625 115.545 725 112C725.912 132.926 744.839 120.521 756 114L751 125C754.392 124.458 757.018 121.239 760.3 121.216C766.12 121.175 772.085 124.458 778 124.79C787.895 125.346 798.418 120.457 806 114.482C813.294 108.735 820.502 98.4592 813.992 89.304C806.413 78.6465 774.25 84.9605 774.453 68.0008C774.56 59.0585 787.135 58.7362 792.996 61.5725C797.965 63.9768 799.311 68.1784 801 73C808.088 69.6926 814.147 61.8523 815 54C798.366 50.5686 782.423 48.7164 768.015 59.8997C760.685 65.5885 754.099 77.3764 761.43 85.787C769.902 95.5068 797.711 89.453 799.972 104.715C800.964 111.404 793.714 115.438 788 114.694C778.704 113.484 770.294 108.856 767 100z"/>
<path style="fill:#000000; stroke:none;" d="M573 59.5332C547.984 65.6158 560.673 117.612 587 111.467C598.74 108.726 598.996 96.973 599 87C599.007 70.0407 594.05 54.4149 573 59.5332M183 84C178.718 85.017 174.928 86.7893 171 88.7531C167.959 90.2735 164.759 91.7141 162.044 93.7886C142.656 108.601 181.35 120.695 185.643 100.96C186.713 96.0395 184.578 88.6628 183 84M508 84C503.718 85.0171 499.928 86.7893 496 88.7531C492.959 90.2735 489.759 91.7141 487.044 93.7886C467.656 108.601 506.35 120.695 510.643 100.96C511.713 96.0395 509.578 88.6629 508 84z"/>
</svg>
