<?xml version="1.0" standalone="yes"?>
<svg width="900" height="150">
<path style="fill:#000000; stroke:none;" d="M0 0L0 150L900 150L900 0L0 0z"/>
<path style="fill:#ffffff; stroke:none;" d="M413 115C409.179 115.045 399.088 120.181 407.228 122.682C415.424 125.2 427.422 123 436 123L436 115L429 115C429 103.949 428.83 98.199 437 90C440.177 98.3955 449.318 117.069 457.185 121.682C460.923 123.873 475.839 125.125 476.534 118.996C477.002 114.869 469.034 111.686 466.59 108.957C462.21 104.065 447.603 88.8893 448.731 82C449.563 76.9133 457.512 72.3284 461 68.99C465.077 65.0882 468.374 62.7775 474 62L474 54C466.794 54 457.062 52.2645 450.148 54.3179C445.124 55.8101 447.286 61.6939 451 63L429 84C429 67.128 433.419 43.1487 428.427 27.0548C426.454 20.6934 407.491 18.9022 404.786 25.2986C402.883 29.7991 408.113 30.8643 410.276 33.429C412.636 36.2274 412.899 40.5109 412.985 44C413.574 67.6346 413 91.3573 413 115M666 53C654.126 50.7955 639.314 51.0896 630.184 60.1852C617.586 72.737 612.903 111.439 631.015 121.583C643.932 128.817 656.344 122.618 669 119C671.784 125.793 686.991 127.102 686.998 118.086C687.002 112.61 682.003 106.721 682 100L682 52C682 43.9754 683.157 34.8741 681.022 27.0579C679.23 20.4977 658.652 18.9426 657.427 26.125C656.653 30.6614 662.624 31.69 664.347 35.1088C666.983 40.3369 666 47.3413 666 53M711.005 25.6528C698.333 29.69 706.101 44.9709 717.995 41.196C730.656 37.1779 722.867 21.8734 711.005 25.6528M114 27L114 35C124.756 35.1274 123 43.4701 123 52C123 70.3403 126.199 91.9845 122.772 109.981C121.454 116.899 114.102 114.367 114 123L148 123C147.925 116.699 146.301 115.075 140 115L139 77L180 77L180 115C173.779 115.074 171.538 116.572 172 123C181.246 123 193.994 125.313 202.852 122.682C211.53 120.105 201.007 115.014 197 115L197 35C199.91 34.9736 210.558 32.9096 204.396 28.027C199.86 24.4335 185.645 26.9884 180 27C177.907 27.0043 174.536 26.4852 172.832 28.0278C171.097 29.5982 171.888 32.9658 172 35L180 35L180 67L139 67L140 35C146.301 34.9253 147.925 33.301 148 27L114 27M507 61L507 53C502.129 53 490.368 51.0896 487.032 55.588C483.733 60.0379 493.149 65.227 493.811 70C495.883 84.9353 494 99.9987 494 115C487.795 115.151 486.074 116.81 486 123L521 123C520.904 114.935 517.166 115.001 510 115C510 103.145 505.013 76.1719 515.214 67.8009C522.001 62.2314 531.462 72.6965 536.543 63.8665C539.325 59.0319 538.708 51.7826 531.995 52.3048C522.887 53.0133 514.456 55.6919 507 61M823 109C815.848 131.569 858.089 128.252 868.671 117.671C871.022 115.319 872.698 112.229 873.468 109C877.26 93.0839 864.466 86.8301 852 81.7994C846.854 79.7229 837.562 76.8296 837.377 70.0031C836.892 52.2034 867.309 73.0844 871.343 64.9259C875.293 56.9404 867.599 53.2515 861 52.3002C849.685 50.6688 832.44 51.3309 824.803 61.1736C806.388 84.9074 845.928 90.0703 855.768 101.105C866.059 112.645 845.011 114.826 838 113.331C832.861 112.235 828.21 109.78 823 109M259 84C247.98 84 234.5 82.8099 225.015 89.6489C214.922 96.9276 213.473 117.331 226.004 123.03C236.88 127.977 251.242 123.553 261 118C263.166 124.164 276.635 127.861 279.338 119.885C280.666 115.964 274.48 111.409 274.094 107C272.906 93.4053 278.467 73.1699 270.991 61.0154C264.213 49.9969 244.071 51.9181 233 53.4252C225.52 54.4434 217.066 55.3379 221.92 64.956C227.541 76.0946 235.858 63.7345 243.001 63.1235C255.451 62.0584 257.792 74.4914 259 84M342 72L343 72C346.518 84.4884 349.053 97.3198 351.79 110C352.627 113.875 353.011 121.487 356.513 123.972C361.131 127.249 369.826 124.113 372.586 119.812C381.368 106.13 383.856 86.316 389 71C391.225 64.3731 397.011 61.236 396 54C390.329 54 380.448 52.0737 375.318 54.6034C370.391 57.0327 374.312 62.3596 378 63L367 110L366 110C364.342 97.6868 360.871 85.1373 358.12 73C356.985 67.9938 356.984 61.69 354.567 57.1088C352.142 52.512 340.736 50.8661 336.589 54.0278C333.267 56.5599 333.173 65.1591 332.4 69C329.702 82.4017 326.707 95.8392 323 109C319.189 100.026 318.106 89.5333 316.2 80C314.908 73.5414 314.841 59.1535 309.57 54.7423C305.987 51.7431 287.69 50.6918 288.466 57.9614C288.916 62.1805 295.995 66.2368 297.641 71C301.994 83.5978 304.186 97.0789 307.374 110C308.385 114.096 308.979 122.2 313.278 124.258C318.463 126.74 326.903 124.797 329.911 119.945C337.05 108.431 340.904 85.415 342 72M587 84C575.98 84 562.5 82.8099 553.015 89.6489C542.922 96.9276 541.473 117.331 554.004 123.03C564.88 127.977 579.242 123.553 589 118C591.166 124.164 604.635 127.861 607.338 119.885C608.666 115.964 602.48 111.409 602.094 107C600.906 93.4053 606.467 73.1699 598.991 61.0154C592.213 49.9969 572.071 51.9181 561 53.4252C553.52 54.4434 545.066 55.3379 549.92 64.956C555.541 76.0946 563.858 63.7345 571.001 63.1235C583.451 62.0584 585.792 74.4914 587 84M708 115C704.182 115.045 693.975 120.25 702.148 122.682C710.723 125.234 723.049 123 732 123L732 115L724 115L724 75C724 69.2013 725.166 61.6997 722.852 56.2284C720.726 51.2011 701.79 50.833 699.801 56.2238C698.054 60.9587 707.08 64.7322 707.811 70C709.817 84.4617 708 100.395 708 115M791 118C793.443 124.952 808.54 127.136 809.534 118.035C809.986 113.896 804.291 109.943 804.04 105C803.337 91.1293 808.485 69.9119 803.107 57.0586C800.76 51.4505 785.585 50.8673 782.032 55.7022C778.838 60.0505 786.801 63.9122 787.656 68.0046C790.134 79.8721 792.815 114.213 775 113.902C767.233 113.766 764.475 106.565 763.439 100C761.283 86.3387 766.42 70.3509 762.682 57.1088C760.981 51.0827 744.378 51.1487 741.032 55.7022C737.778 60.1313 744.877 62.716 746.258 66.0579C747.859 69.9356 747.431 75.8073 747.83 80C748.895 91.1861 745.463 104.321 749.563 114.999C755.857 131.39 779.863 124.338 791 118z"/>
<path style="fill:#000000; stroke:none;" d="M650 62.4722C629.316 66.235 631.116 118.161 656 113.671C667.379 111.617 666 99.9181 666 91C666 78.1217 669.522 58.9209 650 62.4722M259 94C254.64 93.6559 250.401 92.8464 246 93.0394C243.668 93.1416 241.234 93.4065 239.043 94.2639C232.813 96.7015 231.021 105.805 235.434 110.772C241.819 117.96 255.96 113.772 258.291 104.996C259.237 101.435 259 97.6484 259 94M587 94C582.64 93.6559 578.401 92.8464 574 93.0394C571.668 93.1416 569.234 93.4065 567.043 94.2639C560.813 96.7015 559.022 105.805 563.434 110.772C569.819 117.96 583.96 113.772 586.291 104.996C587.237 101.435 587 97.6484 587 94z"/>
</svg>
